<svg xmlns="http://www.w3.org/2000/svg" viewBox="0 0 73.84 73.84"><defs><style>.cls-1{fill:#fff;}.cls-2{fill:#a79572;}</style></defs><g id="Calque_2" data-name="Calque 2"><g id="Layer_10" data-name="Layer 10"><circle class="cls-1" cx="36.92" cy="36.92" r="36.92"/><path class="cls-2" d="M48.16,40.57a8.66,8.66,0,1,1-8.66,8.66,8.66,8.66,0,0,1,8.66-8.66m0-1.93A10.59,10.59,0,1,0,58.75,49.23,10.59,10.59,0,0,0,48.16,38.64Z"/><path class="cls-2" d="M49.14,35.63,54.76,30l6,8.08.18.28H63.2l-2.08-3.28L49,18.7l-.64-.87-.66-.49-.65.49-.64.87L34.21,35.08l-2.09,3.28h2.27l.18-.28,6-8.08,5.62,5.63m1.47-1.48-5.84-5.84,5.84-7.87,5.85,7.87Z"/><circle class="cls-2" cx="47.58" cy="37.02" r="1.37"/><path class="cls-2" d="M26.67,33.27a8.66,8.66,0,1,1,8.66-8.66,8.66,8.66,0,0,1-8.66,8.66m0,1.93A10.59,10.59,0,1,0,16.08,24.61,10.59,10.59,0,0,0,26.67,35.2Z"/><path class="cls-2" d="M24.7,38.21l-5.62,5.63-6-8.09-.18-.27H10.63l2.09,3.28L24.88,55.14l.64.87.65.48.66-.48.64-.87L39.63,38.76l2.08-3.28H39.45l-.18.27-6,8.09-5.62-5.63M32,45.53l-5.85,7.86-5.84-7.86,5.84-5.85Z"/><circle class="cls-2" cx="26.09" cy="36.82" r="1.37"/><path class="cls-2" d="M36.92,69.1A32.19,32.19,0,1,1,69.1,36.92,32.22,32.22,0,0,1,36.92,69.1Zm0-62A29.82,29.82,0,1,0,66.74,36.92,29.86,29.86,0,0,0,36.92,7.1Z"/></g></g></svg>