<svg xmlns="http://www.w3.org/2000/svg" viewBox="0 0 110.95 43.99"><defs><style>.cls-1{fill:#fff;}.cls-2{fill:#dddad6;}</style></defs><g id="Calque_2" data-name="Calque 2"><g id="Calque_1-2" data-name="Calque 1"><circle class="cls-1" cx="84.42" cy="33.14" r="1.64"/><path class="cls-1" d="M4.93,11.87V.08H0V36.23H4.93V25.17a18.18,18.18,0,0,1,0-13.3Z"/><path class="cls-1" d="M21.74.45A18.08,18.08,0,0,0,4.93,11.87v13.3a18.08,18.08,0,0,0,33,1.3V10.57A18.07,18.07,0,0,0,21.74.45Zm0,32.86A14.79,14.79,0,1,1,36.52,18.52,14.81,14.81,0,0,1,21.74,33.31Z"/><path class="cls-1" d="M107.39,30.51l-20.75-28-1.1-1.48L84.42.25l-1.11.82-1.1,1.48L63.42,27.86,66,30.4l6.35-8.55,9.6,9.6h5l9.59-9.6,10.24,13.79.31.47H111Zm-23-25L94.39,19l-10,10-10-10"/><polygon class="cls-1" points="57.9 36.11 61.45 36.11 61.76 36.11 62.07 35.64 63.82 33.28 61.3 30.76 57.9 36.11"/><polygon class="cls-1" points="66.64 36.1 71.67 36.1 65.97 30.4 63.82 33.28 66.64 36.1"/><path class="cls-1" d="M63.42,27.86,54.53,19,67,2.12l-2.75-2h-.16L41.53,30.5V.08H38V10.57a18.09,18.09,0,0,1,0,15.9V36.1h3.86l.31-.46,10.24-13.8,8.92,8.92.15-.25Z"/><polygon class="cls-1" points="64.17 0 64.12 0.08 64.28 0.08 64.17 0"/><path class="cls-2" d="M25.26,41.44h1.58V39.92h.92v4h-.92V42.21H25.26V43.9h-.92v-4h.92Z"/><path class="cls-2" d="M33.35,40.41a2.1,2.1,0,0,1,.62,1.5,2,2,0,0,1-.62,1.49,2.12,2.12,0,0,1-1.54.59,2.17,2.17,0,0,1-1.55-.59,2,2,0,0,1-.62-1.47,2.2,2.2,0,0,1,.61-1.51,2.15,2.15,0,0,1,1.56-.59A2.12,2.12,0,0,1,33.35,40.41ZM30.93,41a1.24,1.24,0,0,0-.35.9,1.18,1.18,0,0,0,1.22,1.22A1.17,1.17,0,0,0,33,41.91a1.24,1.24,0,0,0-.34-.89,1.28,1.28,0,0,0-.88-.34A1.26,1.26,0,0,0,30.93,41Z"/><path class="cls-2" d="M37.12,40.7v3.2H36.2V40.7h-.86v-.78H38v.78Z"/><path class="cls-2" d="M41.9,40.7H40.58v.77h1.26v.77H40.58v.88H41.9v.78H39.66v-4H41.9Z"/><path class="cls-2" d="M44.76,39.92v3.2H46v.78H43.84v-4Z"/><path class="cls-2" d="M49.75,40.89a1,1,0,0,0-.66-.28.5.5,0,0,0-.39.14.34.34,0,0,0-.1.25.29.29,0,0,0,.09.22,1.5,1.5,0,0,0,.5.22l.3.12a1.54,1.54,0,0,1,.54.3,1,1,0,0,1,.29.74,1.4,1.4,0,0,1-.35,1,1.55,1.55,0,0,1-1.13.41,1.62,1.62,0,0,1-.78-.17,2.36,2.36,0,0,1-.59-.43l.48-.66a2,2,0,0,0,.37.3.87.87,0,0,0,.5.15.68.68,0,0,0,.42-.14.44.44,0,0,0,.14-.32.34.34,0,0,0-.14-.29,1.93,1.93,0,0,0-.46-.22l-.33-.11a1.38,1.38,0,0,1-.56-.32,1,1,0,0,1-.23-.69A1.2,1.2,0,0,1,48,40.2a1.28,1.28,0,0,1,1-.37,1.93,1.93,0,0,1,1.18.4Z"/><path class="cls-2" d="M58.39,42.4a4.19,4.19,0,0,1-.53.57l.85.93H57.59l-.36-.39a1.7,1.7,0,0,1-.51.36A2,2,0,0,1,56,44a1.37,1.37,0,0,1-1-.32,1.16,1.16,0,0,1,0-1.61,1.46,1.46,0,0,1,.64-.37,2.19,2.19,0,0,1-.27-.35,1,1,0,0,1-.11-.47.94.94,0,0,1,.28-.71,1.2,1.2,0,0,1,.88-.33,1.23,1.23,0,0,1,.89.33,1,1,0,0,1,.27.67,1,1,0,0,1-.3.7,1.6,1.6,0,0,1-.43.28l.58.63a4.22,4.22,0,0,0,.5-.55ZM56,42.16a1.49,1.49,0,0,0-.32.24.51.51,0,0,0-.14.35.43.43,0,0,0,.14.31.58.58,0,0,0,.39.14,1,1,0,0,0,.62-.27Zm.13-1.06a2.12,2.12,0,0,0,.22.26.88.88,0,0,0,.28-.22.51.51,0,0,0,.13-.32.36.36,0,0,0-.1-.26.43.43,0,0,0-.27-.09.37.37,0,0,0-.25.08.32.32,0,0,0-.12.26A.52.52,0,0,0,56.16,41.1Z"/><path class="cls-2" d="M65,40.89a1,1,0,0,0-.67-.28.48.48,0,0,0-.38.14.34.34,0,0,0-.1.25.29.29,0,0,0,.09.22,1.5,1.5,0,0,0,.5.22l.29.12a1.49,1.49,0,0,1,.55.3,1,1,0,0,1,.29.74,1.4,1.4,0,0,1-.35,1A1.55,1.55,0,0,1,64.1,44a1.63,1.63,0,0,1-.79-.17,2.5,2.5,0,0,1-.58-.43l.48-.66a2,2,0,0,0,.37.3.87.87,0,0,0,.5.15.64.64,0,0,0,.41-.14.41.41,0,0,0,.15-.32.37.37,0,0,0-.14-.29,1.82,1.82,0,0,0-.47-.22l-.32-.11a1.38,1.38,0,0,1-.56-.32,1,1,0,0,1-.24-.69,1.21,1.21,0,0,1,.35-.89,1.26,1.26,0,0,1,1-.37,1.89,1.89,0,0,1,1.18.4Z"/><path class="cls-2" d="M70.79,42.28a1.67,1.67,0,0,1-.44,1.26,1.93,1.93,0,0,1-2.48,0,1.71,1.71,0,0,1-.44-1.26V39.92h.92v2.33a.92.92,0,0,0,.21.67.74.74,0,0,0,.55.21.75.75,0,0,0,.56-.21,1,1,0,0,0,.21-.67V39.92h.91Z"/><path class="cls-2" d="M73.79,39.92v4h-.92v-4Z"/><path class="cls-2" d="M77.27,40.7v3.2h-.92V40.7h-.87v-.78h2.65v.78Z"/><path class="cls-2" d="M82.05,40.7H80.72v.77H82v.77H80.72v.88h1.33v.78H79.81v-4h2.24Z"/><path class="cls-2" d="M86,40.89a1,1,0,0,0-.67-.28.51.51,0,0,0-.39.14.38.38,0,0,0-.1.25.29.29,0,0,0,.09.22,1.73,1.73,0,0,0,.5.22l.3.12a1.45,1.45,0,0,1,.54.3,1,1,0,0,1,.3.74,1.41,1.41,0,0,1-.36,1,1.53,1.53,0,0,1-1.12.41,1.63,1.63,0,0,1-.79-.17,2.5,2.5,0,0,1-.58-.43l.47-.66a2.44,2.44,0,0,0,.37.3.91.91,0,0,0,.5.15.66.66,0,0,0,.42-.14.4.4,0,0,0,.14-.32.36.36,0,0,0-.13-.29,1.82,1.82,0,0,0-.47-.22l-.33-.11a1.35,1.35,0,0,1-.55-.32,1,1,0,0,1-.24-.69,1.21,1.21,0,0,1,.35-.89,1.26,1.26,0,0,1,1-.37,1.89,1.89,0,0,1,1.18.4Z"/></g></g></svg>