<svg xmlns="http://www.w3.org/2000/svg" viewBox="0 0 203 118.39"><defs><style>.cls-1{fill:#e6e6e6;}</style></defs><g id="Calque_2" data-name="Calque 2"><g id="Layer_21" data-name="Layer 21"><path class="cls-1" d="M74.21,111a1.89,1.89,0,0,1,1.53-.73,2.52,2.52,0,0,1,2.5,2.7,2.54,2.54,0,0,1-2.49,2.74,2,2,0,0,1-1.54-.7v.54H73v-8.91h1.2Zm-.08,2a1.47,1.47,0,0,0,1.46,1.62,1.66,1.66,0,0,0,0-3.28A1.47,1.47,0,0,0,74.13,113.05Z"/><path class="cls-1" d="M83.32,114.78l-2.2-4.33h1.45l1.46,3,1.49-3h1.35l-4.1,7.94H81.43Z"/><path class="cls-1" d="M96.9,107.44v8.15H95.65v-8.15Z"/><path class="cls-1" d="M109.39,111.52a4.24,4.24,0,1,1-4.24-4.23A4.14,4.14,0,0,1,109.39,111.52Zm-1.25,0a3,3,0,1,0-3,3.08A2.92,2.92,0,0,0,108.14,111.52Z"/><path class="cls-1" d="M114.64,110.69l3.15-3.25h1.64l-3.68,3.69,3.71,4.46h-1.67l-2.9-3.62-.25.25v3.37H113.4v-8.15h1.24Z"/><path class="cls-1" d="M127.79,113.62h-3.48l-.89,2h-1.35l4.06-8.63,3.86,8.63h-1.34Zm-.5-1.17-1.21-2.76-1.26,2.76Z"/><path class="cls-1" d="M27.76,1.92H0V95.09H6.06V54.19h21.7C41.69,54.19,53,43.48,53,30.31V25.8C53,12.64,41.69,1.92,27.76,1.92Zm20,28.39c0,10.41-8.95,18.87-20,18.87H6.06V6.94h21.7c11,0,20,8.46,20,18.86Z"/><path class="cls-1" d="M100,97C73.7,97,57.37,78.61,57.37,49S74.1,0,100,0c26.28,0,42.61,18.45,42.61,48.15,0,14.58-4,26.86-11.44,35.5S112.81,97,100,97Zm0-92.15C76.7,4.87,62.24,21.77,62.24,49c0,13.22,3.51,24.2,10.14,31.75S88.5,92.15,100,92.15c23.28,0,37.74-16.86,37.74-44S123.62,4.87,100,4.87Z"/><path class="cls-1" d="M104.85,25a24.22,24.22,0,0,0-5.35-.49,23.49,23.49,0,0,0-3.86.39C81.36,26.32,72.72,35,72.72,48.51c0,13,8.49,21.72,22.3,23.45a24,24,0,0,0,9.26.14c14.29-1.36,23-10.08,23-23.59C127.25,35.44,118.74,26.71,104.85,25Zm9.52,26.6L111,51.7a2.72,2.72,0,0,0-2.67,2.78v.68a2.73,2.73,0,1,1-5.45.11l0-.68a2.73,2.73,0,1,0-5.45.11l0,.68a2.73,2.73,0,0,1-5.46.11v-.68a2.73,2.73,0,0,0-2.78-2.67l-3.41.06A2.72,2.72,0,0,1,83,49.53l0-1.36a2.73,2.73,0,0,1,2.67-2.78L89,45.32a2.73,2.73,0,0,0,2.67-2.78v-.68a2.73,2.73,0,1,1,5.45-.11l0,.68a2.73,2.73,0,0,0,5.45-.11l0-.68a2.73,2.73,0,0,1,5.46-.11v.68a2.73,2.73,0,0,0,2.78,2.67l3.41-.07A2.73,2.73,0,0,1,117,47.48l0,1.37A2.73,2.73,0,0,1,114.37,51.63Z"/><path class="cls-1" d="M177.74,1.92H150V95.09H156V54.19h21.7c13.93,0,25.26-10.71,25.26-23.88V25.8C203,12.64,191.67,1.92,177.74,1.92Zm20,28.39c0,10.41-9,18.87-20,18.87H156V6.94h21.7c11,0,20,8.46,20,18.86Z"/></g></g></svg>