<svg xmlns="http://www.w3.org/2000/svg" viewBox="0 0 332.12 107.96"><defs><style>.cls-1{fill:#fff;}</style></defs><g id="Calque_2" data-name="Calque 2"><g id="Layer_10" data-name="Layer 10"><path class="cls-1" d="M127,75.47,108.37,43.23a24.42,24.42,0,1,0-40-18.81V78.15H79.23V49.93H99.71L116,78.15h12.53ZM92.8,10.85A13.57,13.57,0,1,1,79.23,24.42,13.58,13.58,0,0,1,92.8,10.85Z"/><path class="cls-1" d="M186,26.9c.08-.82.13-1.64.13-2.48a24.42,24.42,0,0,0-38-20.3V0H137.3V78.15h10.85V71.6A29.3,29.3,0,0,0,186,26.9Zm-24.29-16a13.58,13.58,0,0,1,13,9.84,29.61,29.61,0,0,0-8.15-1.15A29.16,29.16,0,0,0,148.25,26a13.51,13.51,0,0,1,13.47-15.15Zm10.11,22.59a13.47,13.47,0,0,1-16,3.2,16.12,16.12,0,0,1,16-3.2ZM166.6,65.12a16.29,16.29,0,0,1-16.28-16.28,17.15,17.15,0,0,1,.24-2.7,24.4,24.4,0,0,0,29.8-6A16.25,16.25,0,0,1,166.6,65.12Z"/><path class="cls-1" d="M321.26,78.15V29.3a18.45,18.45,0,1,0-36.9,0V78.15H273.51V29.3a29.31,29.31,0,0,1,58.61,0V78.15Z"/><path class="cls-1" d="M252.89,6.54A29.31,29.31,0,0,0,205.13,29.3V78.15H216V68.38h36.91v9.77h10.85V29.3A29.25,29.25,0,0,0,252.89,6.54Zm-18.46,4.31A18.48,18.48,0,0,1,252.89,29.3v4.35H216V29.3A18.48,18.48,0,0,1,234.43,10.85Zm18.46,28.22v4.34H216V39.07ZM216,57.52V48.84h36.91v8.68Z"/><path class="cls-1" d="M47.76,0V48.84a18.23,18.23,0,0,1-.54,4.34,18.42,18.42,0,0,1-2.29,5.43A18.64,18.64,0,0,1,41.16,63a18.25,18.25,0,0,1-15.11,4v11A28.67,28.67,0,0,0,47.76,71.6,29.36,29.36,0,0,0,55,63a28.82,28.82,0,0,0,2-4.34,30.72,30.72,0,0,0,1.67-9.77V0Z"/><rect class="cls-1" y="44.5" width="10.85" height="4.34"/><polygon class="cls-1" points="10.85 26.08 10.85 0 0 0 0 39.07 10.85 39.07 10.85 26.08"/><path class="cls-1" d="M10.85,71.6l.54.41V63H3.64A29.36,29.36,0,0,0,10.85,71.6Z"/><path class="cls-1" d="M16.28,61.9V63h1.16C17,62.61,16.65,62.27,16.28,61.9Z"/><path class="cls-1" d="M16.28,63V75.07a29.73,29.73,0,0,0,4.34,1.73V65.1A18.12,18.12,0,0,1,17.44,63Z"/><path class="cls-1" d="M.34,53.18a29.71,29.71,0,0,0,1.33,5.43h12a18.16,18.16,0,0,1-2.29-5.43Z"/><path class="cls-1" d="M130.74,98.45a2.42,2.42,0,0,1,2-1A3.25,3.25,0,0,1,136,101a3.29,3.29,0,0,1-3.22,3.54,2.55,2.55,0,0,1-2-.9v.7h-1.55V92.81h1.55Zm-.1,2.6a1.9,1.9,0,0,0,1.88,2.1,2.15,2.15,0,0,0,0-4.26A1.91,1.91,0,0,0,130.64,101.05Z"/><path class="cls-1" d="M142.53,103.29l-2.84-5.61h1.86l1.9,3.89,1.93-3.89h1.74L141.82,108h-1.74Z"/><path class="cls-1" d="M160.1,93.79v10.55h-1.61V93.79Z"/><path class="cls-1" d="M176.27,99.07a5.49,5.49,0,1,1-5.49-5.47A5.35,5.35,0,0,1,176.27,99.07Zm-1.62,0a3.88,3.88,0,1,0-3.87,4A3.78,3.78,0,0,0,174.65,99.07Z"/><path class="cls-1" d="M183.07,98l4.08-4.2h2.12l-4.76,4.77,4.79,5.78h-2.15l-3.77-4.69-.31.32v4.37h-1.62V93.79h1.62Z"/><path class="cls-1" d="M200.08,101.79h-4.5l-1.16,2.55h-1.74l5.25-11.17,5,11.17h-1.74Zm-.64-1.52-1.57-3.57-1.63,3.57Z"/><rect class="cls-1" x="206.25" y="99.06" width="12.52" height="2.64"/><rect class="cls-1" x="113.34" y="99.06" width="12.52" height="2.64"/></g></g></svg>